# xmcd
#
# Track frame offsets:
#	150
#	13647
#	27600
#	38020
#	49180
#	61837
#	71907
#	81800
#	93707
#	105140
#	116747
#	127380
#	140272
#	153242
#	165315
#	177475
#	189032
#	198680
#	209417
#	220295
#	230855
#	240905
#	249567
#	260840
#
# Disc length: 3572 seconds
#
# Revision: 3
# Processed by: cddbd v1.5.1PL0 Copyright (c) Steve Scherf et al.
# Submitted via: Rip'N'TagIt 1.2.0.1 
#
DISCID=5d0df218
DTITLE=Bill Monroe - The Music of Bill Monroe From 1936 To 1994 (Disc2)
DYEAR=1994
DGENRE=Bluegrass
TTITLE0=Memories Of Mother And Dad
TTITLE1=The Little Girl And The Dreadful Snake
TTITLE2=Y'all Come
TTITLE3=Sitting Alone In The Moonlight
TTITLE4=On And On
TTITLE5=White House Blues
TTITLE6=Happy On My Way
TTITLE7=A Voice From On High
TTITLE8=Close By
TTITLE9=Put My Little Shoes Away
TTITLE10=Wheel Hoss
TTITLE11=Cheyenne
TTITLE12=You'll Find Her Name Written There
TTITLE13=Roanoke
TTITLE14=Blue Moon Of Kentucky
TTITLE15=The Girl In The Blue Velvet Band
TTITLE16=Used To Be
TTITLE17=A Good Woman's Love
TTITLE18=Cry, Cry Darlin'
TTITLE19=I'm Sittin' On Top Of The World
TTITLE20=I'll Meet You In The Morning
TTITLE21=Scotland
TTITLE22=Molly And Tenbrooks
TTITLE23=John Henry
EXTD=
EXTT0=
EXTT1=
EXTT2=
EXTT3=
EXTT4=
EXTT5=
EXTT6=
EXTT7=
EXTT8=
EXTT9=
EXTT10=
EXTT11=
EXTT12=
EXTT13=
EXTT14=
EXTT15=
EXTT16=
EXTT17=
EXTT18=
EXTT19=
EXTT20=
EXTT21=
EXTT22=
EXTT23=
PLAYORDER=
